<svg width="505" height="67" viewBox="0 0 505 67" fill="none" xmlns="http://www.w3.org/2000/svg">
<g clip-path="url(#clip0_4130_3556)">
<path d="M316.699 9.99669C315.429 14.7951 314.143 19.5861 312.894 24.3919C311.469 29.879 310.066 35.3735 308.693 40.8753C307.988 43.704 306.203 44.8296 303.375 44.9481C293.444 45.3553 293.238 45.2072 290.814 35.4179C288.889 27.6575 286.855 19.9267 284.827 12.1886C284.629 11.4184 284.115 10.7372 282.962 10.0633C282.859 11.1741 282.697 12.2774 282.653 13.3882C282.249 25.0954 281.808 36.8026 281.529 48.5172C281.463 51.1608 280.354 51.8569 277.952 51.9309C270.768 52.1383 270.709 52.2123 270.959 45.1776C271.415 32.3596 271.914 19.5417 272.48 6.7237C272.744 0.807143 273.361 0.303606 279.267 0.281391C281.713 0.266582 284.166 0.385061 286.605 0.281391C289.786 0.155507 291.519 1.45137 292.283 4.69474C294.553 14.3952 297.043 24.0513 299.474 33.7147C299.643 34.396 300.04 35.018 300.745 36.5657C302.258 30.427 303.551 25.1398 304.866 19.8601C306.144 14.7136 307.466 9.58201 308.693 4.42816C309.405 1.43656 311.139 0.118483 314.224 0.259177C317.397 0.407276 320.585 0.355441 323.766 0.266582C326.616 0.192532 328.173 1.42916 328.298 4.3319C328.959 19.2381 329.583 34.1442 330.274 49.043C330.369 51.1312 329.517 51.768 327.519 51.9161C319.755 52.4863 319.718 52.5159 319.439 44.8444C319.072 34.7366 318.712 24.6289 318.345 14.5211C318.293 13.092 318.168 11.6702 318.08 10.2411C317.625 10.1522 317.169 10.0707 316.714 9.98188L316.699 9.99669Z" fill="#F8AD02"/>
<path d="M0.051373 26.0802C0.0440276 18.5494 0.117482 11.026 -4.51425e-05 3.49512C-0.029427 1.40693 0.381919 0.0962489 2.6737 0.103654C11.0842 0.118464 19.5242 -0.236974 27.9053 0.296183C34.5456 0.718265 38.8501 4.87985 40.5248 11.4406C42.8827 20.6746 43.1912 30.0345 40.8701 39.2758C38.615 48.2432 33.5834 52.1308 23.7845 52.4789C16.9459 52.7232 10.0853 52.2493 3.23195 52.1456C0.594937 52.1086 -0.029427 50.635 0.0293367 48.2951C0.124828 44.5926 0.051373 40.8901 0.051373 37.1876C0.051373 33.4852 0.051373 29.7827 0.051373 26.0802ZM11.5323 26.058C11.5323 29.0126 11.5323 31.9672 11.5323 34.9217C11.5323 41.0086 14.5562 43.9311 20.604 43.6892C25.6429 43.4893 28.1992 41.8009 29.088 36.773C29.9106 32.093 30.1824 27.2428 30.0722 22.4814C29.7858 10.1151 26.8843 7.6493 14.6982 8.34537C12.377 8.47865 11.4368 9.26358 11.4956 11.6628C11.6131 16.4612 11.5323 21.267 11.5323 26.0654V26.058Z" fill="#F8AD02"/>
<path d="M126.247 34.4922C122.552 31.6487 122.052 26.8503 123.242 21.8149C124.469 16.5945 128.663 14.4174 133.416 14.3063C142.061 14.099 150.722 14.5137 159.375 14.8025C160.087 14.8247 161.417 15.965 161.336 16.3575C161.101 17.5423 160.498 19.3935 159.698 19.5935C156.928 20.2895 157.2 21.9853 157.391 24.1031C158.067 31.7524 154.931 35.8251 147.401 36.7581C143.795 37.2098 140.1 36.9507 136.464 37.2098C135.362 37.2913 134.319 38.0614 133.247 38.5131C134.231 39.5054 135.098 41.1567 136.222 41.3714C140.893 42.2526 145.661 42.6451 150.376 43.3041C156.862 44.2075 159.698 47.2213 159.962 53.323C160.271 60.4392 157.92 64.5341 151.258 65.1339C143.56 65.8226 135.715 65.2154 127.958 64.7192C124.763 64.5119 122.302 62.2608 121.567 58.8989C120.752 55.152 120.826 51.4273 124.168 48.7764C125.74 47.5249 125.776 46.4956 125.461 44.4741C125.005 41.5714 125.857 38.4613 126.247 34.4922ZM140.746 58.1288C142.59 57.9289 144.551 58.1066 146.16 57.4328C147.482 56.8774 149.223 55.3149 149.23 54.182C149.23 53.0564 147.482 51.2422 146.211 50.9238C142.935 50.1093 139.505 49.9093 136.126 49.5465C133.629 49.2799 132.182 50.5239 131.903 53.0046C131.616 55.5741 132.549 57.3291 135.333 57.6179C137.14 57.803 138.954 57.9585 140.754 58.1288H140.746ZM140.607 20.1488C140.519 20.3265 140.438 20.4969 140.35 20.6746C139.498 20.7486 138.646 20.8153 137.794 20.9041C135.039 21.1929 133.203 22.3481 133.144 25.5026C133.085 28.6275 134.848 30.0715 137.566 30.3603C139.601 30.575 141.745 30.5306 143.743 30.1085C146.902 29.442 148.518 25.1101 146.292 22.8738C144.889 21.4669 142.531 21.0226 140.607 20.1414V20.1488Z" fill="#F8AD02"/>
<path d="M105.319 47.4361C102.029 49.1244 99.252 51.0053 96.1889 52.0272C91.2822 53.6711 86.3827 53.1823 82.5264 49.3169C78.5525 45.3331 79.1989 40.2088 80.286 35.3808C81.0793 31.8635 83.8926 29.7382 87.4772 29.4124C91.7302 29.02 96.0347 29.1977 100.295 28.8274C101.603 28.7164 102.822 27.6278 104.085 26.9836C103.02 25.5174 102.205 23.1775 100.839 22.785C98.3485 22.0667 95.5278 22.4518 92.8467 22.4666C90.6431 22.4814 88.4321 22.5036 86.2432 22.748C83.5327 23.0442 82.2179 22.163 81.88 19.2528C81.5347 16.2909 82.6953 15.1653 85.3985 14.995C91.1353 14.6321 96.8647 13.8991 102.594 13.9213C111.122 13.9509 115.103 18.0903 115.324 26.7541C115.5 33.7814 115.39 40.8235 115.368 47.8582C115.368 49.6502 115.787 51.9975 112.959 51.8346C110.446 51.6939 107.038 53.5007 105.988 49.2133C105.848 48.6357 105.562 48.0951 105.305 47.4287L105.319 47.4361ZM98.3485 35.3734V35.4104C97.1365 35.4104 95.9245 35.4401 94.7125 35.4104C91.5907 35.3142 90.8635 37.2395 90.79 39.9052C90.7092 42.9265 92.2077 44.9036 95.0357 44.5778C97.7021 44.2742 100.486 43.2375 102.726 41.7565C103.784 41.053 104.019 38.5501 103.924 36.8988C103.887 36.3287 101.749 35.7955 100.523 35.4178C99.8543 35.2179 99.0757 35.3808 98.3485 35.3808V35.3734Z" fill="#F8AD02"/>
<path d="M437.899 36.6841C438.737 42.1045 440.066 43.5707 444.532 43.7262C448.675 43.8669 452.855 43.8002 456.983 43.4522C459.84 43.2078 460.501 44.5926 460.927 46.9695C461.375 49.4502 460.575 50.983 458.165 51.1459C451.393 51.5902 444.562 52.4566 437.833 51.9753C431.817 51.5458 427.638 47.3398 426.793 41.2529C426.073 36.0991 426.095 30.7157 426.676 25.5322C427.381 19.164 431.634 15.2393 437.833 14.5433C442.858 13.9805 448.139 13.9064 453.082 14.8321C460.854 16.2834 464.585 24.5696 461.287 31.8634C459.517 35.7807 455.8 36.5212 452.047 36.6544C447.434 36.8174 442.806 36.6915 437.907 36.6915L437.899 36.6841ZM444.033 30.4121V30.3825C445.01 30.3825 445.987 30.3825 446.964 30.3825C449.263 30.3825 451.158 29.7901 451.327 27.0354C451.488 24.3474 450.372 22.237 447.617 22.0223C445.252 21.8371 442.402 21.7409 440.558 22.8961C438.987 23.8809 438.553 26.7022 437.613 28.7089C439.023 29.2791 440.404 29.9234 441.844 30.3751C442.512 30.5824 443.298 30.4121 444.033 30.4121Z" fill="#F8AD02"/>
<path d="M357.29 52.8862C354.94 52.7381 353.346 52.6937 351.767 52.5234C343.429 51.6274 339.154 48.0508 338.104 39.735C337.487 34.8255 337.832 29.6643 338.559 24.7326C339.367 19.2233 343.099 15.4098 348.549 14.8174C354.044 14.2176 359.707 14.4767 365.223 15.0839C369.711 15.5727 372.554 18.8827 373.928 23.1479C376.029 29.6495 376.095 36.2769 374.2 42.8229C372.738 47.8508 369.278 50.9905 364.173 52.0346C361.668 52.5456 359.09 52.6715 357.283 52.8862H357.29ZM363.864 32.9743C363.732 31.5229 363.696 29.531 363.336 27.5983C362.528 23.3182 360.581 21.9113 356.064 22.0668C351.994 22.2075 349.908 23.8884 349.497 28.0204C349.166 31.3156 349.137 34.6774 349.394 37.98C349.747 42.5637 351.921 44.5482 356.115 44.7186C360.405 44.8963 362.807 42.8747 363.541 38.2911C363.791 36.7138 363.747 35.0921 363.864 32.9743Z" fill="#F8AD02"/>
<path d="M202.925 33.9961C202.815 35.6548 202.779 37.7578 202.507 39.8312C201.611 46.7474 198.048 51.0571 191.18 51.9753C186.17 52.6418 180.911 52.5603 175.909 51.805C170.157 50.9312 166.374 46.7696 165.904 40.9864C165.434 35.1883 165.787 29.2199 166.595 23.444C167.219 18.9863 170.591 15.7873 174.969 15.1357C180.213 14.3508 185.693 13.9287 190.923 14.5729C198.18 15.4763 201.713 19.9119 202.529 27.2724C202.756 29.3532 202.779 31.4562 202.918 33.9813L202.925 33.9961ZM191.518 33.1371C191.334 31.2785 191.305 29.0348 190.85 26.8799C190.115 23.3552 187.86 21.9704 183.673 22.126C179.662 22.274 177.672 23.6884 177.349 27.3464C177.018 31.0045 176.923 34.7366 177.231 38.3946C177.62 43.0079 179.831 44.7925 184.158 44.7259C188.543 44.6592 190.468 42.9042 191.092 38.2836C191.305 36.6989 191.356 35.092 191.511 33.1297L191.518 33.1371Z" fill="#F8AD02"/>
<path d="M482.449 52.2789C478.174 51.9827 477.043 49.3688 476.037 46.4364C472.915 37.358 469.654 28.3313 466.473 19.2751C465.033 15.1875 465.342 14.6692 469.514 14.7581C477.366 14.9284 476.323 13.1734 478.762 21.7779C480.797 28.983 482.912 36.1584 485.321 44.4593C486.401 41.1123 487.275 38.6094 488.01 36.0621C489.721 30.1604 491.44 24.2586 492.99 18.3124C493.688 15.617 495.017 14.61 497.867 14.647C506.08 14.7432 506.138 14.6322 503.369 22.2222C499.124 33.885 495.091 45.6441 490.39 57.1144C487.782 63.4752 482.493 66.9333 475.354 67C473.047 67.0222 472.063 66.0225 471.813 63.7788C471.585 61.7054 471.769 60.18 474.164 59.5728C477.829 58.6546 480.15 56.0629 482.457 52.2789H482.449Z" fill="#F8AD02"/>
<path d="M392.974 19.4084C395.56 18.0459 397.712 16.4835 400.107 15.7652C403.332 14.7951 406.762 13.9584 410.089 14.0028C415.327 14.0694 418.522 17.4239 418.654 22.7036C418.874 31.4563 418.728 40.2237 418.808 48.9838C418.83 51.2867 417.721 51.9532 415.642 51.9532C406.137 51.9235 407.9 52.627 407.768 44.5482C407.68 39.2463 407.805 33.9369 407.753 28.6276C407.717 24.1105 406.343 22.9035 401.884 23.5256C400.327 23.7403 398.799 24.2809 397.301 24.7918C394.818 25.636 393.702 27.2428 393.797 30.0715C394.003 36.114 393.797 42.1638 393.922 48.2063C393.981 50.8646 393.07 51.9235 390.33 51.9828C382.669 52.1605 382.676 52.2568 382.691 44.5482C382.698 36.0325 382.654 27.5168 382.75 19.0011C382.764 17.3794 381.861 14.6989 384.858 14.884C387.48 15.0469 391.366 12.744 392.181 17.8015C392.255 18.2532 392.592 18.6605 392.974 19.4084Z" fill="#F8AD02"/>
<path d="M220.804 19.2603C223.956 17.7423 227.004 15.8615 230.309 14.8322C232.91 14.025 235.863 13.8621 238.595 14.1213C243.127 14.5508 246.087 17.4609 246.264 22.126C246.616 31.2415 246.528 40.3718 246.411 49.4947C246.403 50.3019 244.956 51.5829 244.001 51.7829C242.246 52.1605 240.351 51.8125 238.522 51.9162C235.863 52.0717 235.179 50.6647 235.216 48.2729C235.297 41.8602 235.304 35.4476 235.253 29.0349C235.209 23.807 233.784 22.6592 228.752 23.5848C222.626 24.7178 221.48 26.0951 221.48 32.2782C221.48 37.7061 221.385 43.1339 221.51 48.5543C221.568 51.1386 220.628 52.0272 218.079 51.9754C209.257 51.7829 210.609 52.7751 210.543 44.5853C210.477 36.077 210.484 27.5613 210.557 19.053C210.572 17.4165 209.625 14.7063 212.541 14.847C215.163 14.9729 219.042 12.8032 219.96 17.7275C220.048 18.194 220.305 18.6235 220.503 19.0604C220.547 19.1493 220.702 19.1937 220.797 19.2529L220.804 19.2603Z" fill="#F8AD02"/>
<path d="M59.9757 18.8307C64.6181 17.0906 68.7536 15.38 72.9919 14.0175C75.4159 13.24 76.7381 14.3804 76.3561 17.1128C76.2018 18.2087 76.121 19.3269 76.1137 20.4302C76.0843 22.9553 75.1 24.4289 72.3528 24.1771C71.7505 24.1253 71.1335 24.2363 70.5238 24.2956C61.8709 25.1916 61.2832 25.8432 61.2832 34.5737C61.2832 39.261 61.1877 43.9557 61.32 48.6431C61.3861 51.0423 60.4899 51.9383 58.132 51.9383C48.3038 51.9531 50.0888 52.427 50.0373 44.3482C49.9859 36.0843 49.9859 27.8129 50.0594 19.549C50.0741 17.6163 49.3028 14.8247 52.5715 14.8395C55.1865 14.8543 58.8005 13.2326 59.5203 17.9051C59.5864 18.3494 59.9464 18.7567 59.9831 18.8307H59.9757Z" fill="#F8AD02"/>
</g>
<defs>
<clipPath id="clip0_4130_3556">
<rect width="505" height="67" fill="white"/>
</clipPath>
</defs>
</svg>
